<svg width="132" height="32" viewBox="0 0 132 32" fill="none" xmlns="http://www.w3.org/2000/svg">
<g clip-path="url(#clip0_49_609)">
<path d="M0.821773 16V14.3215H2.46532V5.43934H0.821773V3.76082H5.71744C7.34933 3.76082 8.59656 4.17463 9.45913 5.00223C10.3334 5.82983 10.7705 7.07706 10.7705 8.74392V11.0344C10.7705 12.7013 10.3334 13.9485 9.45913 14.7761C8.59656 15.592 7.34933 16 5.71744 16H0.821773ZM4.37113 14.2865H5.73493C6.79566 14.2865 7.58246 14.0184 8.09534 13.4822C8.60822 12.946 8.86466 12.1476 8.86466 11.0868V8.67398C8.86466 7.60159 8.60822 6.80313 8.09534 6.2786C7.58246 5.75406 6.79566 5.49179 5.73493 5.49179H4.37113V14.2865ZM12.2798 16V3.76082H19.9905V5.47431H14.1682V8.9887H19.5009V10.7022H14.1682V14.2865H20.0779V16H12.2798ZM25.5834 16.2448C24.6626 16.2448 23.8466 16.0816 23.1356 15.7552C22.4246 15.4288 21.8651 14.9509 21.4571 14.3215C21.0608 13.6804 20.8626 12.9052 20.8626 11.996V11.5589H22.7335V11.996C22.7335 12.8586 22.9899 13.5055 23.5028 13.9368C24.0273 14.3681 24.7209 14.5838 25.5834 14.5838C26.4577 14.5838 27.1163 14.4031 27.5592 14.0417C28.0021 13.6687 28.2236 13.1908 28.2236 12.608C28.2236 12.2233 28.1187 11.9086 27.9089 11.6638C27.6991 11.4191 27.4018 11.2267 27.0172 11.0868C26.6325 10.9353 26.1721 10.7954 25.6359 10.6672L24.989 10.5099C24.208 10.3234 23.5261 10.0961 22.9433 9.82796C22.3721 9.54821 21.9292 9.18103 21.6145 8.72643C21.2997 8.27184 21.1424 7.68902 21.1424 6.97798C21.1424 6.25529 21.3172 5.6375 21.6669 5.12462C22.0283 4.61174 22.5237 4.21542 23.1531 3.93567C23.7825 3.65592 24.5227 3.51604 25.3736 3.51604C26.2245 3.51604 26.9822 3.66175 27.6466 3.95316C28.3227 4.24456 28.8531 4.67585 29.2377 5.24701C29.6224 5.81817 29.8147 6.53504 29.8147 7.39761V8.02705H27.9439V7.39761C27.9439 6.87307 27.8331 6.44762 27.6117 6.12124C27.4018 5.79486 27.1046 5.5559 26.7199 5.40437C26.3353 5.25284 25.8865 5.17707 25.3736 5.17707C24.6276 5.17707 24.0448 5.33443 23.6252 5.64916C23.2172 5.95222 23.0132 6.37768 23.0132 6.92553C23.0132 7.29853 23.1006 7.60742 23.2755 7.85221C23.462 8.08533 23.7301 8.27766 24.0798 8.4292C24.4295 8.58073 24.8666 8.71478 25.3911 8.83134L26.038 8.9887C26.8307 9.16355 27.5301 9.39085 28.1362 9.6706C28.7423 9.93869 29.2202 10.3059 29.5699 10.7721C29.9196 11.2384 30.0945 11.8387 30.0945 12.573C30.0945 13.3074 29.908 13.9485 29.535 14.4963C29.1736 15.0442 28.6549 15.4755 27.9788 15.7902C27.3028 16.0933 26.5043 16.2448 25.5834 16.2448ZM31.4523 16V3.76082H33.3406V16H31.4523ZM39.516 16.2448C38.6418 16.2448 37.8608 16.0583 37.1731 15.6853C36.4854 15.3006 35.9434 14.7411 35.5471 14.0068C35.1507 13.2724 34.9526 12.3749 34.9526 11.3141V8.44668C34.9526 6.84976 35.3897 5.63167 36.2639 4.79241C37.1381 3.9415 38.3213 3.51604 39.8133 3.51604C41.282 3.51604 42.4127 3.91819 43.2053 4.72247C43.9979 5.51511 44.3942 6.58166 44.3942 7.92214V8.00957H42.5234V7.86969C42.5234 7.36847 42.4243 6.9197 42.2261 6.52338C42.028 6.11541 41.7308 5.79486 41.3344 5.56173C40.9381 5.3286 40.4311 5.21204 39.8133 5.21204C38.8808 5.21204 38.1523 5.49762 37.6277 6.06878C37.1032 6.62829 36.8409 7.40926 36.8409 8.41171V11.3491C36.8409 12.3399 37.1032 13.1267 37.6277 13.7095C38.1523 14.2807 38.8866 14.5663 39.8308 14.5663C40.7633 14.5663 41.4452 14.3098 41.8765 13.7969C42.3077 13.2841 42.5234 12.6197 42.5234 11.8037V11.5764H39.2363V9.95035H44.3942V16H42.6458V14.7586H42.366C42.2611 14.9801 42.1038 15.2074 41.8939 15.4405C41.6958 15.6736 41.4044 15.866 41.0197 16.0175C40.6467 16.169 40.1455 16.2448 39.516 16.2448ZM46.2025 16V3.76082H49.8392L53.1613 14.7411H53.4411V3.76082H55.3119V16H51.6751L48.3531 5.00223H48.0733V16H46.2025ZM63.4969 16V5.47431H59.7377V3.76082H69.1444V5.47431H65.3852V16H63.4969ZM74.3177 16.2448C72.814 16.2448 71.6192 15.8252 70.7334 14.9859C69.8475 14.135 69.4045 12.9111 69.4045 11.3141V8.44668C69.4045 6.84976 69.8475 5.63167 70.7334 4.79241C71.6192 3.9415 72.814 3.51604 74.3177 3.51604C75.8214 3.51604 77.0161 3.9415 77.902 4.79241C78.7996 5.63167 79.2483 6.84976 79.2483 8.44668V11.3141C79.2483 12.9111 78.7996 14.135 77.902 14.9859C77.0161 15.8252 75.8214 16.2448 74.3177 16.2448ZM74.3177 14.5488C75.2852 14.5488 76.0312 14.269 76.5557 13.7095C77.0802 13.1384 77.3425 12.3632 77.3425 11.3841V8.37674C77.3425 7.39761 77.0802 6.62829 76.5557 6.06878C76.0312 5.49762 75.2852 5.21204 74.3177 5.21204C73.3735 5.21204 72.6333 5.49762 72.0971 6.06878C71.561 6.62829 71.2929 7.39761 71.2929 8.37674V11.3841C71.2929 12.3632 71.561 13.1384 72.0971 13.7095C72.6333 14.269 73.3735 14.5488 74.3177 14.5488ZM80.8593 16V3.76082H82.7476V8.84882H83.0274L87.5908 3.76082H90.0562L84.5311 9.79299L90.2485 16H87.7132L83.0274 10.8071H82.7476V16H80.8593ZM91.0432 16V3.76082H98.7538V5.47431H92.9315V8.9887H98.2643V10.7022H92.9315V14.2865H98.8413V16H91.0432ZM100.185 16V3.76082H103.822L107.144 14.7411H107.424V3.76082H109.295V16H105.658L102.336 5.00223H102.056V16H100.185ZM115.384 16.2448C114.464 16.2448 113.648 16.0816 112.937 15.7552C112.226 15.4288 111.666 14.9509 111.258 14.3215C110.862 13.6804 110.664 12.9052 110.664 11.996V11.5589H112.534V11.996C112.534 12.8586 112.791 13.5055 113.304 13.9368C113.828 14.3681 114.522 14.5838 115.384 14.5838C116.259 14.5838 116.917 14.4031 117.36 14.0417C117.803 13.6687 118.025 13.1908 118.025 12.608C118.025 12.2233 117.92 11.9086 117.71 11.6638C117.5 11.4191 117.203 11.2267 116.818 11.0868C116.433 10.9353 115.973 10.7954 115.437 10.6672L114.79 10.5099C114.009 10.3234 113.327 10.0961 112.744 9.82796C112.173 9.54821 111.73 9.18103 111.415 8.72643C111.101 8.27184 110.943 7.68902 110.943 6.97798C110.943 6.25529 111.118 5.6375 111.468 5.12462C111.829 4.61174 112.325 4.21542 112.954 3.93567C113.583 3.65592 114.324 3.51604 115.175 3.51604C116.025 3.51604 116.783 3.66175 117.448 3.95316C118.124 4.24456 118.654 4.67585 119.039 5.24701C119.423 5.81817 119.616 6.53504 119.616 7.39761V8.02705H117.745V7.39761C117.745 6.87307 117.634 6.44762 117.413 6.12124C117.203 5.79486 116.906 5.5559 116.521 5.40437C116.136 5.25284 115.687 5.17707 115.175 5.17707C114.429 5.17707 113.846 5.33443 113.426 5.64916C113.018 5.95222 112.814 6.37768 112.814 6.92553C112.814 7.29853 112.902 7.60742 113.076 7.85221C113.263 8.08533 113.531 8.27766 113.881 8.4292C114.23 8.58073 114.668 8.71478 115.192 8.83134L115.839 8.9887C116.632 9.16355 117.331 9.39085 117.937 9.6706C118.543 9.93869 119.021 10.3059 119.371 10.7721C119.721 11.2384 119.895 11.8387 119.895 12.573C119.895 13.3074 119.709 13.9485 119.336 14.4963C118.975 15.0442 118.456 15.4755 117.78 15.7902C117.104 16.0933 116.305 16.2448 115.384 16.2448ZM0.999116 30V21.2577H6.38186V22.2069H2.04819V25.1293H6.03216V26.0785H2.04819V29.0508H6.4443V30H0.999116ZM7.4119 30V21.2577H9.4476L12.4949 29.3381H12.6573V21.2577H13.6938V30H11.6581L8.62333 21.9072H8.44848V30H7.4119ZM17.6641 30V21.2577H23.0468V22.2069H18.7131V25.1293H22.6971V26.0785H18.7131V29.0508H23.1092V30H17.6641ZM26.9868 30.1748C26.354 30.1748 25.7878 30.0624 25.2883 29.8376C24.7887 29.6128 24.3932 29.2756 24.1018 28.826C23.8187 28.3681 23.6772 27.7978 23.6772 27.1151V26.8528H24.7138V27.1151C24.7138 27.8394 24.9261 28.3806 25.3507 28.7386C25.7753 29.0883 26.3207 29.2632 26.9868 29.2632C27.6695 29.2632 28.1899 29.1091 28.5479 28.8011C28.9059 28.493 29.0849 28.1058 29.0849 27.6396C29.0849 27.3149 29.0017 27.0568 28.8351 26.8653C28.6769 26.6738 28.4521 26.5197 28.1607 26.4032C27.8693 26.2783 27.528 26.1701 27.1366 26.0785L26.4872 25.9161C25.9793 25.7829 25.5297 25.6205 25.1384 25.429C24.7471 25.2375 24.439 24.9878 24.2142 24.6797C23.9978 24.3633 23.8895 23.9595 23.8895 23.4683C23.8895 22.977 24.0102 22.5524 24.2517 22.1944C24.5015 21.8364 24.847 21.5616 25.2883 21.3701C25.7379 21.1786 26.2541 21.0829 26.8369 21.0829C27.4281 21.0829 27.9568 21.187 28.423 21.3951C28.8976 21.5949 29.2681 21.8947 29.5345 22.2943C29.8093 22.6856 29.9467 23.181 29.9467 23.7805V24.305H28.9101V23.7805C28.9101 23.3559 28.8185 23.0145 28.6353 22.7564C28.4605 22.4983 28.2149 22.3068 27.8985 22.1819C27.5904 22.057 27.2366 21.9946 26.8369 21.9946C26.2624 21.9946 25.8003 22.1236 25.4506 22.3817C25.1009 22.6315 24.9261 22.9895 24.9261 23.4558C24.9261 23.7638 25.001 24.0136 25.1509 24.2051C25.3008 24.3966 25.5131 24.5548 25.7878 24.6797C26.0626 24.7963 26.3915 24.9003 26.7745 24.9919L27.4239 25.1543C27.9318 25.2625 28.3855 25.4124 28.7852 25.6039C29.1932 25.7871 29.5179 26.041 29.7593 26.3657C30.0008 26.6821 30.1215 27.0984 30.1215 27.6146C30.1215 28.1308 29.9924 28.5804 29.7343 28.9634C29.4762 29.3464 29.1099 29.6461 28.6353 29.8626C28.1691 30.0708 27.6195 30.1748 26.9868 30.1748ZM31.1116 30V21.2577H34.4587C34.9832 21.2577 35.4495 21.3618 35.8574 21.57C36.2737 21.7698 36.6026 22.057 36.8441 22.4317C37.0855 22.8064 37.2063 23.2601 37.2063 23.793V23.9553C37.2063 24.4799 37.0814 24.9336 36.8316 25.3166C36.5901 25.6913 36.2613 25.9786 35.845 26.1784C35.4287 26.3782 34.9666 26.4781 34.4587 26.4781H32.1607V30H31.1116ZM32.1607 25.529H34.3463C34.9041 25.529 35.3454 25.3916 35.6701 25.1168C35.9948 24.8337 36.1572 24.4383 36.1572 23.9304V23.8055C36.1572 23.2976 35.9948 22.9063 35.6701 22.6315C35.3537 22.3484 34.9124 22.2069 34.3463 22.2069H32.1607V25.529ZM36.5936 30L39.2912 21.2577H41.1396L43.8372 30H42.7507L42.0763 27.7895H38.3546L37.6802 30H36.5936ZM38.6168 26.8403H41.8015L40.3028 21.8947H40.128L38.6168 26.8403ZM44.5226 30V21.2577H46.5583L49.6056 29.3381H49.768V21.2577H50.8046V30H48.7689L45.7341 21.9072H45.5592V30H44.5226ZM46.2086 20.5334L45.6217 20.1337L46.0213 19.5093C46.1295 19.3511 46.2544 19.222 46.396 19.1221C46.5375 19.0139 46.7165 18.9598 46.933 18.9598C47.1245 18.9598 47.291 19.0014 47.4326 19.0847C47.5824 19.1679 47.7365 19.2928 47.8946 19.4593C48.0029 19.5676 48.0945 19.655 48.1694 19.7216C48.2443 19.7799 48.3318 19.809 48.4317 19.809C48.5316 19.809 48.6107 19.7799 48.669 19.7216C48.7356 19.6633 48.798 19.5925 48.8563 19.5093L49.181 18.9972L49.768 19.3969L49.3683 20.0213C49.2684 20.1712 49.1477 20.3002 49.0062 20.4085C48.8646 20.5167 48.6856 20.5708 48.4691 20.5708C48.2693 20.5708 48.0986 20.5292 47.9571 20.4459C47.8156 20.3627 47.6657 20.2378 47.5075 20.0713C47.3993 19.963 47.3077 19.8798 47.2327 19.8215C47.1578 19.7632 47.0704 19.7341 46.9705 19.7341C46.8706 19.7341 46.7873 19.7632 46.7207 19.8215C46.6541 19.8798 46.5916 19.9506 46.5334 20.0338L46.2086 20.5334ZM55.3638 30.1748C54.3231 30.1748 53.4905 29.8751 52.866 29.2756C52.2499 28.6678 51.9418 27.7853 51.9418 26.628V24.6297C51.9418 23.4724 52.2499 22.5941 52.866 21.9946C53.4905 21.3868 54.3231 21.0829 55.3638 21.0829C56.4129 21.0829 57.2455 21.3868 57.8616 21.9946C58.4861 22.5941 58.7983 23.4724 58.7983 24.6297V26.628C58.7983 27.7853 58.4861 28.6678 57.8616 29.2756C57.2455 29.8751 56.4129 30.1748 55.3638 30.1748ZM55.3638 29.2382C56.1215 29.2382 56.7085 29.0134 57.1248 28.5638C57.5411 28.1058 57.7492 27.4731 57.7492 26.6654V24.5923C57.7492 23.7847 57.5411 23.1561 57.1248 22.7065C56.7085 22.2485 56.1215 22.0196 55.3638 22.0196C54.6145 22.0196 54.0317 22.2485 53.6154 22.7065C53.1991 23.1561 52.9909 23.7847 52.9909 24.5923V26.6654C52.9909 27.4731 53.1991 28.1058 53.6154 28.5638C54.0317 29.0134 54.6145 29.2382 55.3638 29.2382ZM59.9216 30V21.2577H60.9707V29.0508H65.3918V30H59.9216Z" fill="black"/>
</g>
<defs>
<clipPath id="clip0_49_609">
<rect width="132" height="32" fill="white"/>
</clipPath>
</defs>
</svg>
