<svg width="280" height="140" viewBox="0 0 280 140" fill="none" xmlns="http://www.w3.org/2000/svg">
<path d="M21.8502 63.7051C21.7575 63.5837 21.6349 63.4882 21.4945 63.428C21.354 63.3678 21.2004 63.3449 21.0485 63.3615C20.8966 63.3781 20.7515 63.4337 20.6274 63.5228C20.5033 63.612 20.4043 63.7317 20.34 63.8703L12.6808 79.1887C12.6109 79.3282 12.5777 79.4832 12.5845 79.639C12.5913 79.7949 12.6377 79.9464 12.7195 80.0793C12.8013 80.2121 12.9157 80.3219 13.0518 80.3981C13.1879 80.4743 13.3413 80.5145 13.4973 80.5148H24.1626C24.3352 80.5181 24.505 80.4707 24.651 80.3784C24.7969 80.2861 24.9126 80.1531 24.9837 79.9957C27.2819 75.2765 25.8898 68.0232 21.8502 63.7051Z" fill="url(#paint0_linear_96_252)"/>
<path d="M27.4707 49.7933C25.5613 52.7306 24.4486 56.114 24.2418 59.6112C24.035 63.1084 24.7411 66.5993 26.2909 69.7412L31.4584 79.996C31.5337 80.1483 31.65 80.2767 31.7942 80.3668C31.9384 80.4568 32.1048 80.5049 32.2748 80.5056H42.9401C43.0896 80.4933 43.234 80.4455 43.3614 80.3662C43.4887 80.287 43.5953 80.1785 43.6723 80.0498C43.7494 79.921 43.7946 79.7758 43.8044 79.6261C43.8141 79.4764 43.788 79.3266 43.7282 79.189L29.028 49.7933C28.9576 49.6466 28.8471 49.5227 28.7094 49.4359C28.5716 49.3492 28.4121 49.3032 28.2493 49.3032C28.0866 49.3032 27.9271 49.3492 27.7893 49.4359C27.6515 49.5227 27.5411 49.6466 27.4707 49.7933Z" fill="#2684FF"/>
<path d="M252.792 66.1215L260.536 80.5149H267.416V54.8238H261.942V71.4022L259.871 66.5934L253.651 54.8238H245.01V80.5149H250.484V60.921L252.792 66.1215Z" fill="#0052CC"/>
<path d="M210.192 54.8238H204.208V80.5149H210.192V54.8238Z" fill="#0052CC"/>
<path d="M197.304 72.9171C197.304 68.4198 194.921 66.3103 188.191 64.8615C184.477 64.0404 183.581 63.2193 183.581 62.03C183.581 60.5435 184.907 59.9158 187.356 59.9158C190.329 59.9158 193.264 60.8172 196.039 62.0678V56.1924C193.375 54.9791 190.472 54.3777 187.545 54.4322C180.895 54.4322 177.455 57.325 177.455 62.0583C177.455 65.8337 179.215 68.8587 186.096 70.1895C190.202 71.0483 191.065 71.7137 191.065 73.0823C191.065 74.4509 190.202 75.272 187.29 75.272C183.795 75.2082 180.37 74.2826 177.318 72.5774V78.7547C179.39 79.7694 182.127 80.902 187.228 80.902C194.42 80.902 197.276 77.6976 197.276 72.9266" fill="#0052CC"/>
<path d="M172.396 72.9171C172.396 68.4198 170.037 66.3103 163.288 64.8615C159.574 64.0404 158.673 63.2193 158.673 62.03C158.673 60.5435 160.004 59.9158 162.448 59.9158C165.421 59.9158 168.352 60.8172 171.127 62.0678V56.1924C168.462 54.9791 165.56 54.3777 162.632 54.4322C155.988 54.4322 152.543 57.325 152.543 62.0583C152.543 65.8337 154.303 68.8587 161.188 70.1895C165.294 71.0483 166.153 71.7137 166.153 73.0823C166.153 74.4509 165.294 75.272 162.377 75.272C158.882 75.2082 155.457 74.2826 152.406 72.5774V78.7547C154.482 79.7694 157.219 80.902 162.316 80.902C169.513 80.902 172.363 77.6976 172.363 72.9266" fill="#0052CC"/>
<path d="M112.118 74.9605V54.8238H106.097V80.5149H118.395L120.33 74.9605H112.118Z" fill="#0052CC"/>
<path d="M94.4687 80.5149V60.3735H101.585V54.8238H81.7977V60.3735H88.447V80.5149H94.4687Z" fill="#0052CC"/>
<path d="M73.0673 54.8238H65.1769L56.2104 80.5149H63.0768L64.351 76.1874C67.4782 77.1064 70.8037 77.1064 73.9309 76.1874L75.2004 80.5149H82.0432L73.0673 54.8238ZM69.1221 71.5579C68.004 71.5596 66.8915 71.4006 65.8187 71.086L69.1221 59.8733L72.4255 71.086C71.3526 71.4003 70.2401 71.5592 69.1221 71.5579Z" fill="#0052CC"/>
<path d="M139.593 54.8238H131.703L122.736 80.5149H129.579L130.853 76.1874C133.981 77.1064 137.306 77.1064 140.433 76.1874L141.703 80.5149H148.546L139.593 54.8238ZM135.648 71.5579C134.53 71.56 133.417 71.401 132.345 71.086L135.648 59.8733L138.952 71.086C137.879 71.4011 136.766 71.56 135.648 71.5579Z" fill="#0052CC"/>
<path d="M231.749 54.8238H223.859L214.892 80.5149H221.735L223.004 76.1874C226.132 77.1064 229.457 77.1064 232.584 76.1874L233.854 80.5149H240.701L231.749 54.8238ZM227.804 71.5579C226.686 71.5592 225.573 71.4003 224.5 71.086L227.804 59.8733L231.107 71.086C230.034 71.4003 228.922 71.5592 227.804 71.5579Z" fill="#0052CC"/>
<defs>
<linearGradient id="paint0_linear_96_252" x1="26.0502" y1="66.0694" x2="17.9663" y2="80.0759" gradientUnits="userSpaceOnUse">
<stop stop-color="#0052CC"/>
<stop offset="0.92" stop-color="#2684FF"/>
</linearGradient>
</defs>
</svg>
