<svg width="280" height="140" viewBox="0 0 280 140" fill="none" xmlns="http://www.w3.org/2000/svg">
<mask id="mask0_96_229" style="mask-type:luminance" maskUnits="userSpaceOnUse" x="54" y="10" width="172" height="120">
<path d="M54.5 10.2758H225.5V129.724H54.5V10.2758Z" fill="white"/>
</mask>
<g mask="url(#mask0_96_229)">
<path fill-rule="evenodd" clip-rule="evenodd" d="M125.503 23.3523C131.023 17.6061 138.705 14.0478 147.192 14.0478C158.508 14.0478 168.316 20.3346 173.597 29.7019C178.284 27.6063 183.362 26.5245 188.496 26.5271C208.865 26.5271 225.4 43.187 225.4 63.7447C225.4 84.3024 208.865 100.962 188.496 100.962C186.007 100.962 183.58 100.712 181.204 100.239C176.583 108.475 167.75 114.07 157.691 114.07C153.596 114.078 149.553 113.149 145.872 111.354C141.188 122.356 130.281 130.089 117.582 130.089C104.316 130.089 93.0631 121.728 88.7253 109.971C86.7946 110.379 84.8266 110.584 82.8534 110.582C67.0737 110.582 54.3115 97.6316 54.3115 81.7261C54.3115 71.0386 60.0576 61.7342 68.5825 56.7048C66.7739 52.5386 65.843 48.0444 65.8477 43.5026C65.8477 25.1452 80.7474 10.3085 99.1047 10.3085C109.855 10.3085 119.474 15.4322 125.509 23.3849" fill="#00A1E0"/>
</g>
<path fill-rule="evenodd" clip-rule="evenodd" d="M79.232 72.389C79.1245 72.6694 79.2703 72.7279 79.3049 72.7775C79.6262 73.0101 79.9525 73.1786 80.2794 73.3679C82.0271 74.292 83.6742 74.5623 85.3968 74.5623C88.9048 74.5623 91.0863 72.6952 91.0863 69.6901V69.631C91.0863 66.8522 88.6219 65.8401 86.321 65.1171L86.0198 65.0197C84.2784 64.4551 82.7758 63.9635 82.7758 62.8193V62.7608C82.7758 61.7801 83.656 61.0571 85.0139 61.0571C86.5228 61.0571 88.3208 61.5594 89.4713 62.195C89.4713 62.195 89.812 62.4151 89.9358 62.0863C90.0031 61.9083 90.5897 60.3385 90.6525 60.1625C90.7192 59.9783 90.6022 59.8394 90.4822 59.7677C89.1619 58.963 87.3388 58.416 85.4527 58.416L85.1026 58.4173C81.89 58.4173 79.6457 60.3599 79.6457 63.1387V63.1984C79.6457 66.128 82.1227 67.0836 84.4362 67.7437L84.8084 67.8594C86.4932 68.3774 87.9517 68.8275 87.9517 70.0095V70.0686C87.9517 71.1562 87.0024 71.9672 85.481 71.9672C84.8895 71.9672 83.0041 71.9571 80.9609 70.6658C80.7138 70.5218 80.573 70.4181 80.3825 70.3018C80.2819 70.2408 80.0304 70.1308 79.921 70.4602L79.2295 72.384M130.592 72.384C130.485 72.6644 130.631 72.7228 130.667 72.7725C130.987 73.0051 131.314 73.1736 131.641 73.3628C133.389 74.287 135.036 74.5573 136.758 74.5573C140.266 74.5573 142.448 72.6901 142.448 69.6851V69.626C142.448 66.8472 139.99 65.835 137.683 65.1121L137.381 65.0146C135.64 64.4501 134.137 63.9585 134.137 62.8143V62.7558C134.137 61.7751 135.018 61.0521 136.376 61.0521C137.884 61.0521 139.676 61.5544 140.833 62.19C140.833 62.19 141.174 62.41 141.298 62.0812C141.365 61.9033 141.952 60.3335 142.008 60.1575C142.076 59.9733 141.958 59.8343 141.839 59.7627C140.519 58.958 138.695 58.411 136.809 58.411L136.459 58.4123C133.246 58.4123 131.002 60.3549 131.002 63.1336V63.1933C131.002 66.123 133.479 67.0786 135.792 67.7387L136.164 67.8544C137.855 68.3724 139.307 68.8225 139.307 70.0044V70.0635C139.307 71.1511 138.358 71.9621 136.836 71.9621C136.244 71.9621 134.353 71.9521 132.316 70.6608C132.069 70.5168 131.925 70.4175 131.737 70.2968C131.674 70.2565 131.378 70.1409 131.276 70.4552L130.585 72.3789M165.665 66.4945C165.665 68.192 165.348 69.531 164.728 70.4803C164.11 71.4171 163.175 71.876 161.874 71.876C160.573 71.876 159.642 71.4208 159.032 70.4866C158.418 69.5436 158.108 68.1982 158.108 66.5008C158.108 64.8034 158.42 63.4706 159.032 62.5339C159.641 61.6034 160.566 61.1571 161.874 61.1571C163.182 61.1571 164.112 61.6078 164.728 62.5339C165.352 63.4706 165.665 64.8034 165.665 66.5008M168.595 63.3512C168.306 62.3767 167.859 61.5217 167.262 60.805C166.664 60.0883 165.91 59.5099 165.011 59.095C164.118 58.6769 163.062 58.4663 161.868 58.4663C160.673 58.4663 159.623 58.6782 158.724 59.095C157.832 59.5125 157.071 60.0883 156.474 60.805C155.878 61.5217 155.43 62.3767 155.141 63.3512C154.855 64.3193 154.71 65.3755 154.71 66.5008C154.71 67.6261 154.855 68.6823 155.141 69.6505C155.428 70.6249 155.876 71.4799 156.474 72.1966C157.072 72.9133 157.832 73.4854 158.724 73.8941C159.623 74.3014 160.68 74.5089 161.868 74.5089C163.056 74.5089 164.112 74.3014 165.005 73.8941C165.898 73.4867 166.658 72.9133 167.256 72.1966C167.852 71.4799 168.299 70.6249 168.588 69.6505C168.874 68.6823 169.019 67.6261 169.019 66.5008C169.019 65.3818 168.874 64.3193 168.588 63.3512M192.667 71.3982C192.57 71.1134 192.293 71.2209 192.293 71.2209C191.867 71.3837 191.412 71.5346 190.928 71.6101C190.44 71.6868 189.897 71.7251 189.325 71.7251C187.911 71.7251 186.779 71.3033 185.974 70.4678C185.163 69.6316 184.711 68.2863 184.717 66.4631C184.721 64.8034 185.123 63.5586 185.842 62.603C186.553 61.66 187.647 61.1696 189.093 61.1696C190.3 61.1696 191.224 61.3098 192.192 61.6129C192.192 61.6129 192.421 61.7128 192.531 61.4104C192.789 60.7 192.978 60.1908 193.254 59.4112C193.332 59.1881 193.141 59.0938 193.071 59.0667C192.692 58.9184 191.795 58.6751 191.116 58.5726C190.481 58.4758 189.746 58.4255 188.916 58.4255C187.684 58.4255 186.59 58.6361 185.653 59.0535C184.716 59.4703 183.924 60.0468 183.296 60.7635C182.667 61.4802 182.189 62.3352 181.868 63.3097C181.551 64.2778 181.391 65.3403 181.391 66.4656C181.391 68.8923 182.045 70.8601 183.34 72.2997C184.635 73.7457 186.584 74.4749 189.123 74.4749C190.626 74.4749 192.166 74.1713 193.273 73.7331C193.273 73.7331 193.484 73.6313 193.392 73.3848L192.669 71.3982M197.793 64.86C197.933 63.917 198.191 63.1311 198.598 62.5213C199.205 61.5909 200.132 61.0816 201.433 61.0816C202.734 61.0816 203.596 61.5934 204.212 62.5213C204.62 63.1343 204.799 63.9484 204.865 64.86L197.761 64.8587L197.793 64.86ZM207.663 62.7853C207.413 61.8486 206.795 60.8993 206.393 60.4655C205.752 59.7803 205.13 59.2962 204.507 59.0321C203.609 58.6501 202.642 58.454 201.665 58.4556C200.427 58.4556 199.302 58.665 198.39 59.0906C197.479 59.5194 196.712 60.1028 196.108 60.832C195.505 61.5613 195.052 62.4226 194.763 63.4096C194.473 64.3841 194.328 65.4528 194.328 66.5719C194.328 67.716 194.479 68.7785 194.777 69.7404C195.078 70.7085 195.563 71.5573 196.217 72.2614C196.871 72.9718 197.707 73.525 198.713 73.9148C199.712 74.3014 200.926 74.502 202.315 74.4976C205.182 74.4882 206.691 73.85 207.307 73.5043C207.417 73.4427 207.52 73.3364 207.391 73.0303L206.743 71.2134C206.644 70.9424 206.37 71.0405 206.37 71.0405C205.659 71.3058 204.654 71.7823 202.296 71.776C200.756 71.7735 199.618 71.319 198.901 70.6067C198.172 69.8774 197.807 68.815 197.751 67.3062L207.684 67.3137C207.684 67.3137 207.945 67.3112 207.972 67.0559C207.983 66.9503 208.312 65.019 207.676 62.7872L207.663 62.7853ZM118.391 64.86C118.531 63.917 118.79 63.1311 119.196 62.5213C119.804 61.5909 120.73 61.0816 122.031 61.0816C123.332 61.0816 124.194 61.5934 124.81 62.5213C125.218 63.1343 125.396 63.9484 125.464 64.86L118.36 64.8587L118.391 64.86ZM128.261 62.7853C128.012 61.8486 127.394 60.8993 126.991 60.4655C126.35 59.7803 125.728 59.2962 125.105 59.0321C124.207 58.6501 123.24 58.454 122.264 58.4556C121.025 58.4556 119.9 58.665 118.988 59.0906C118.077 59.5194 117.31 60.1028 116.706 60.832C116.105 61.5613 115.65 62.4226 115.361 63.4096C115.072 64.3841 114.927 65.4528 114.927 66.5719C114.927 67.716 115.077 68.7785 115.377 69.7404C115.678 70.7085 116.163 71.5573 116.811 72.2614C117.464 72.9718 118.3 73.525 119.306 73.9148C120.306 74.3014 121.513 74.502 122.909 74.4976C125.775 74.4882 127.284 73.85 127.9 73.5043C128.01 73.4427 128.114 73.3364 127.984 73.0303L127.336 71.2134C127.236 70.9424 126.962 71.0405 126.962 71.0405C126.252 71.3058 125.246 71.7823 122.889 71.776C121.355 71.7735 120.21 71.319 119.494 70.6067C118.764 69.8774 118.4 68.815 118.343 67.3062L128.276 67.3137C128.276 67.3137 128.538 67.3112 128.565 67.0559C128.576 66.9503 128.905 65.019 128.268 62.7872L128.261 62.7853ZM96.9531 71.3353C96.564 71.0248 96.5099 70.9487 96.381 70.7469C96.1843 70.4433 96.0837 70.0113 96.0837 69.4581C96.0837 68.5905 96.3729 67.9619 96.9701 67.5406C96.9638 67.5419 97.8251 66.7988 99.8494 66.824C100.75 66.8401 101.649 66.9168 102.54 67.0534V71.561H102.541C102.541 71.561 101.284 71.832 99.8633 71.9175C97.8452 72.0388 96.9525 71.3366 96.9588 71.3385L96.9531 71.3353ZM100.901 64.357C100.499 64.3275 99.9771 64.313 99.3547 64.313C98.506 64.313 97.6824 64.4186 96.9154 64.6261C96.1421 64.8348 95.4443 65.158 94.8471 65.588C94.2482 66.0152 93.7556 66.5745 93.4074 67.2225C93.056 67.8764 92.8768 68.6433 92.8768 69.5109C92.8768 70.3911 93.0296 71.1518 93.3313 71.7742C93.627 72.3915 94.0722 72.9253 94.6264 73.327C95.1777 73.7281 95.8586 74.0248 96.6445 74.2008C97.424 74.3788 98.3042 74.4687 99.2723 74.4687C100.291 74.4687 101.303 74.3832 102.284 74.2178C103.119 74.0738 103.951 73.9119 104.78 73.7325C105.11 73.6564 105.477 73.5565 105.477 73.5565C105.723 73.4942 105.704 73.2321 105.704 73.2321L105.698 64.1791C105.698 62.1925 105.167 60.7151 104.12 59.8035C103.076 58.8919 101.549 58.433 99.5684 58.433C98.8266 58.433 97.6258 58.5336 96.9091 58.6776C96.9091 58.6776 94.7465 59.0975 93.8538 59.7966C93.8538 59.7966 93.6576 59.9173 93.7645 60.1908L94.4686 62.0768C94.556 62.3214 94.7943 62.2378 94.7943 62.2378C94.7943 62.2378 94.8691 62.2082 94.9571 62.156C96.862 61.1187 99.2761 61.1502 99.2761 61.1502C100.345 61.1502 101.175 61.367 101.728 61.7914C102.269 62.207 102.545 62.835 102.545 64.1552V64.5746C101.696 64.4513 100.911 64.3803 100.911 64.3803L100.901 64.357ZM180.743 59.2459C180.757 59.2127 180.765 59.177 180.765 59.1409C180.765 59.1048 180.758 59.0691 180.744 59.0357C180.73 59.0024 180.71 58.9722 180.684 58.947C180.658 58.9218 180.628 58.902 180.594 58.8888C180.425 58.8247 179.582 58.6468 178.934 58.6065C177.69 58.5286 176.998 58.7385 176.376 59.0177C175.761 59.2949 175.081 59.7407 174.703 60.2562L174.702 59.0491C174.702 58.8831 174.585 58.7492 174.417 58.7492H171.878C171.713 58.7492 171.593 58.8831 171.593 59.0491V73.823C171.594 73.9028 171.625 73.9793 171.682 74.0358C171.738 74.0922 171.815 74.124 171.895 74.1241H174.497C174.577 74.124 174.653 74.0922 174.71 74.0357C174.766 73.9793 174.798 73.9028 174.798 73.823V66.4046C174.798 65.4113 174.907 64.4243 175.125 63.8019C175.34 63.1864 175.633 62.6954 175.993 62.3434C176.337 62.0033 176.757 61.7511 177.219 61.6078C177.652 61.4835 178.101 61.4204 178.552 61.4205C179.07 61.4205 179.639 61.5538 179.639 61.5538C179.83 61.5751 179.937 61.4582 180.001 61.2859C180.172 60.8327 180.655 59.4754 180.749 59.205" fill="#FFFFFE"/>
<path fill-rule="evenodd" clip-rule="evenodd" d="M156.434 52.4273C156.113 52.33 155.785 52.2524 155.454 52.1947C155.009 52.1203 154.558 52.0854 154.106 52.0903C152.313 52.0903 150.899 52.597 149.906 53.5979C148.921 54.5912 148.25 56.1044 147.913 58.0954L147.792 58.7675H145.541C145.541 58.7675 145.266 58.7562 145.208 59.056L144.839 61.1181C144.813 61.3155 144.898 61.4387 145.162 61.4375H147.353L145.13 73.8494C144.955 74.849 144.756 75.6713 144.536 76.2943C144.318 76.9092 144.105 77.37 143.844 77.7045C143.591 78.0282 143.35 78.2665 142.936 78.4054C142.594 78.5205 142.201 78.5733 141.769 78.5733C141.529 78.5733 141.21 78.5331 140.974 78.4859C140.738 78.4394 140.616 78.3866 140.439 78.3124C140.439 78.3124 140.182 78.2143 140.081 78.4721C139.998 78.6827 139.414 80.289 139.345 80.4876C139.275 80.6838 139.373 80.8384 139.498 80.883C139.79 80.9874 140.007 81.0541 140.404 81.1477C140.956 81.2779 141.421 81.286 141.857 81.286C142.77 81.286 143.601 81.1578 144.291 80.9088C144.985 80.658 145.589 80.2211 146.124 79.6295C146.701 78.9914 147.065 78.3231 147.412 77.4115C147.756 76.5081 148.049 75.3865 148.284 74.0795L150.518 61.4375H153.785C153.785 61.4375 154.06 61.4475 154.117 61.1489L154.487 59.0868C154.513 58.8894 154.428 58.7662 154.163 58.7675H150.993C151.008 58.6958 151.152 57.5805 151.516 56.5306C151.672 56.0824 151.964 55.7209 152.212 55.4726C152.443 55.2361 152.728 55.0588 153.042 54.9558C153.387 54.8493 153.746 54.7975 154.106 54.8024C154.405 54.8024 154.698 54.8382 154.921 54.8848C155.229 54.9501 155.348 54.9847 155.429 55.0086C155.752 55.1073 155.795 55.0118 155.859 54.8552L156.617 52.773C156.695 52.5492 156.505 52.4549 156.434 52.4273ZM112.129 73.8758C112.129 74.0418 112.011 74.177 111.845 74.177H109.215C109.049 74.177 108.93 74.0418 108.93 73.8758V52.7095C108.93 52.5442 109.049 52.4103 109.215 52.4103H111.845C112.011 52.4103 112.129 52.5442 112.129 52.7095V73.8758Z" fill="#FFFFFE"/>
</svg>
