<svg width="280" height="140" viewBox="0 0 280 140" fill="none" xmlns="http://www.w3.org/2000/svg">
<g style="mix-blend-mode:luminosity" opacity="0.6">
<path d="M68.277 46H48V94.1355L68.277 46Z" fill="#FA0C00"/>
<path d="M82.5435 45.9999H102.794V94.1354L82.5435 45.9999Z" fill="#FA0C00"/>
<path d="M75.4101 63.7412L88.3161 94.1357H79.8486L75.9914 84.4587H66.5464L75.4101 63.7412Z" fill="#FA0C00"/>
<path d="M135.874 76.6113L138.265 83.4166C138.345 83.5871 138.464 83.6657 138.675 83.6657H143.272C143.523 83.6657 143.563 83.5477 143.523 83.2986L134.025 57.1132C133.985 56.9034 133.946 56.8641 133.734 56.8641H128.028C127.869 56.8641 127.777 56.9821 127.777 57.1525C127.698 58.5293 127.579 58.9489 127.407 59.3554L118.94 83.2593C118.9 83.5477 118.992 83.6657 119.23 83.6657H123.338C123.589 83.6657 123.708 83.5871 123.801 83.3379L126.06 76.6113H135.874ZM127.367 72.1662C128.609 68.4423 130.247 63.6694 130.908 60.942H130.947C131.766 63.8005 133.695 69.4651 134.567 72.1662H127.367Z" fill="#FA0C00"/>
<path d="M155.733 84.0722C158.203 84.0722 160.832 83.6264 163.5 82.4856C163.712 82.4069 163.751 82.3151 163.751 82.1184C163.672 81.3842 163.58 80.3221 163.58 79.5091V54.8579C163.58 54.7005 163.58 54.6218 163.381 54.6218H158.903C158.732 54.6218 158.652 54.7005 158.652 54.9103V63.2629C157.952 63.1842 157.463 63.1449 156.882 63.1449C149.657 63.1449 145.218 67.8784 145.218 73.7921C145.218 80.6499 149.775 84.0722 155.733 84.0722ZM158.652 79.5091C157.913 79.7451 157.094 79.8369 156.261 79.8369C152.985 79.8369 150.304 78.0012 150.304 73.543C150.304 69.5961 153.065 67.2621 156.724 67.2621C157.463 67.2621 158.111 67.3408 158.652 67.5506V79.5091Z" fill="#FA0C00"/>
<path d="M178.038 63.1448C171.869 63.1448 168.051 67.839 168.051 73.6347C168.051 78.814 171.089 84.0721 177.945 84.0721C183.744 84.0721 187.813 79.8368 187.813 73.5035C187.813 67.9177 184.365 63.1448 178.038 63.1448ZM177.787 67.2621C181.274 67.2621 182.754 70.2386 182.754 73.6347C182.754 77.8306 180.574 79.9155 178.038 79.9155C174.907 79.9155 173.058 77.3061 173.058 73.5429C173.058 69.6747 175.026 67.2621 177.787 67.2621Z" fill="#FA0C00"/>
<path d="M192.442 54.6218C192.271 54.6218 192.152 54.7005 192.152 54.9103V82.8134C192.152 82.9314 192.271 83.1412 192.442 83.1805C194.411 83.7837 196.471 84.0722 198.598 84.0722C204.688 84.0722 210.606 80.3221 210.606 72.7693C210.606 67.3015 206.828 63.1449 200.91 63.1449C199.549 63.1449 198.281 63.3547 197.172 63.7218L197.119 54.9496C197.119 54.6612 197.039 54.6218 196.749 54.6218H192.442ZM205.547 73.2676C205.547 77.7914 202.429 79.9156 199.061 79.9156C198.36 79.9156 197.74 79.8762 197.172 79.7058V67.7997C197.819 67.5506 198.598 67.3408 200.038 67.3408C203.288 67.3408 205.547 69.3863 205.547 73.2676Z" fill="#FA0C00"/>
<path d="M227.318 74.7361C229.326 74.7361 230.977 74.6968 231.545 74.5656C231.757 74.5263 231.836 74.4476 231.876 74.2772C231.994 73.8313 232.047 72.9004 232.047 71.7596C232.047 67.8783 229.696 63.1448 223.619 63.1448C217.411 63.1448 213.963 68.1668 213.963 73.8313C213.963 78.8534 216.632 84.0721 224.108 84.0721C226.909 84.0721 228.718 83.6263 230.277 82.892C230.436 82.8133 230.515 82.6822 230.515 82.4462V79.0501C230.515 78.8534 230.396 78.814 230.277 78.8927C228.718 79.5483 227.028 79.8761 225.178 79.8761C220.991 79.8761 219.089 77.5815 218.97 74.7361H227.318ZM218.97 71.222C219.3 69.2289 220.568 67.0654 223.408 67.0654C226.539 67.0654 227.358 69.6747 227.358 70.8548C227.358 70.8942 227.358 71.0646 227.358 71.1827C227.186 71.222 226.658 71.222 225.099 71.222H218.97Z" fill="#FA0C00"/>
</g>
</svg>
