<svg width="280" height="140" viewBox="0 0 280 140" fill="none" xmlns="http://www.w3.org/2000/svg">
<path d="M130.831 71.0996C130.831 77.1259 126.116 81.5667 120.33 81.5667C114.545 81.5667 109.83 77.1259 109.83 71.0996C109.83 65.0307 114.545 60.6324 120.33 60.6324C126.116 60.6324 130.831 65.0307 130.831 71.0996ZM126.234 71.0996C126.234 67.3337 123.502 64.757 120.33 64.757C117.159 64.757 114.427 67.3337 114.427 71.0996C114.427 74.8277 117.159 77.4421 120.33 77.4421C123.502 77.4421 126.234 74.823 126.234 71.0996Z" fill="#EA4335"/>
<path d="M153.483 71.0996C153.483 77.1259 148.768 81.5667 142.983 81.5667C137.197 81.5667 132.482 77.1259 132.482 71.0996C132.482 65.0354 137.197 60.6324 142.983 60.6324C148.768 60.6324 153.483 65.0307 153.483 71.0996ZM148.886 71.0996C148.886 67.3337 146.154 64.757 142.983 64.757C139.811 64.757 137.079 67.3337 137.079 71.0996C137.079 74.8277 139.811 77.4421 142.983 77.4421C146.154 77.4421 148.886 74.823 148.886 71.0996Z" fill="#FBBC05"/>
<path d="M175.191 61.2648V80.0565C175.191 87.7865 170.632 90.9436 165.243 90.9436C160.17 90.9436 157.116 87.5506 155.965 84.7757L159.967 83.1098C160.679 84.8134 162.426 86.8238 165.238 86.8238C168.688 86.8238 170.826 84.6955 170.826 80.6889V79.1835H170.665C169.636 80.4529 167.654 81.5619 165.153 81.5619C159.92 81.5619 155.125 77.0032 155.125 71.1373C155.125 65.2289 159.92 60.6324 165.153 60.6324C167.65 60.6324 169.632 61.7414 170.665 62.9732H170.826V61.2695H175.191V61.2648ZM171.151 71.1373C171.151 67.4516 168.693 64.757 165.564 64.757C162.393 64.757 159.736 67.4516 159.736 71.1373C159.736 74.7852 162.393 77.4421 165.564 77.4421C168.693 77.4421 171.151 74.7852 171.151 71.1373Z" fill="#4285F4"/>
<path d="M182.388 50.2503V80.9249H177.904V50.2503H182.388Z" fill="#34A853"/>
<path d="M199.858 74.5447L203.426 76.9232C202.274 78.6268 199.499 81.5621 194.705 81.5621C188.758 81.5621 184.318 76.9657 184.318 71.095C184.318 64.8705 188.796 60.6279 194.19 60.6279C199.622 60.6279 202.279 64.9507 203.147 67.2867L203.624 68.4759L189.631 74.271C190.703 76.3711 192.369 77.4423 194.705 77.4423C197.045 77.4423 198.669 76.2908 199.858 74.5447ZM188.876 70.7789L198.23 66.895C197.715 65.5878 196.167 64.677 194.346 64.677C192.01 64.677 188.758 66.7392 188.876 70.7789Z" fill="#EA4335"/>
<path d="M92.8603 68.3766V63.9359H107.825C107.971 64.7098 108.047 65.6253 108.047 66.6163C108.047 69.9481 107.136 74.0679 104.2 77.0032C101.345 79.9763 97.6974 81.5619 92.865 81.5619C83.908 81.5619 76.3762 74.2661 76.3762 65.3091C76.3762 56.3522 83.908 49.0563 92.865 49.0563C97.8201 49.0563 101.35 51.0006 104.002 53.5348L100.869 56.6683C98.9669 54.8845 96.3902 53.4971 92.8603 53.4971C86.3195 53.4971 81.2039 58.7684 81.2039 65.3091C81.2039 71.8499 86.3195 77.1212 92.8603 77.1212C97.1028 77.1212 99.519 75.4176 101.067 73.8697C102.322 72.6144 103.148 70.8211 103.474 68.3719L92.8603 68.3766Z" fill="#4285F4"/>
</svg>
