<svg width="280" height="140" viewBox="0 0 280 140" fill="none" xmlns="http://www.w3.org/2000/svg">
<path d="M205.731 76.8934C207.796 76.9397 209.795 76.1653 211.293 74.7389L214.051 77.7251C212.23 79.6039 209.704 81 205.778 81C199.047 81 194.696 76.5185 194.696 70.4599C194.669 69.0713 194.921 67.6915 195.437 66.4026C195.952 65.1138 196.722 63.9424 197.699 62.9583C198.676 61.9743 199.84 61.1977 201.123 60.6749C202.405 60.1521 203.78 59.8939 205.164 59.9155C211.847 59.9155 215.636 65.0175 215.301 72.0931H199.503C200.061 75.0319 202.123 76.9064 205.718 76.9064M210.529 68.7191C210.099 65.9742 208.467 63.9532 205.203 63.9532C202.166 63.9532 200.048 65.6768 199.503 68.7191H210.533H210.529ZM102 76.665L114.156 64.2721H102.288V60.3852H119.795V64.3496L107.64 76.7383H119.967V80.6294H102V76.665ZM133.613 76.8891C135.678 76.9354 137.677 76.161 139.176 74.7346L141.933 77.7208C140.112 79.5995 137.586 80.9957 133.66 80.9957C126.93 80.9957 122.579 76.5142 122.579 70.4556C122.551 69.067 122.803 67.6872 123.319 66.3983C123.835 65.1095 124.604 63.9381 125.581 62.954C126.558 61.9699 127.722 61.1934 129.005 60.6706C130.288 60.1478 131.662 59.8896 133.046 59.9112C139.73 59.9112 143.518 65.0132 143.183 72.0888H127.394C127.952 75.0276 130.014 76.902 133.609 76.902M138.42 68.7147C137.99 65.9698 136.358 63.9489 133.093 63.9489C130.057 63.9489 127.939 65.6725 127.394 68.7147H138.424H138.42ZM169.444 70.4513C169.444 63.9876 174.268 59.9198 179.581 59.9198C180.856 59.9028 182.119 60.166 183.282 60.6908C184.445 61.2156 185.479 61.9894 186.312 62.9578V51.0129H190.607V80.5734H186.312V77.7854C185.495 78.7936 184.462 79.6045 183.29 80.158C182.119 80.7115 180.838 80.9934 179.543 80.9828C174.388 80.9828 169.449 76.8891 169.449 70.4556M186.552 70.4125C186.519 69.1487 186.114 67.9228 185.39 66.8884C184.665 65.854 183.652 65.0568 182.479 64.5966C181.305 64.1365 180.022 64.0338 178.79 64.3013C177.558 64.5688 176.433 65.1948 175.554 66.1008C174.675 67.0069 174.081 68.1528 173.848 69.3953C173.615 70.6378 173.752 71.9217 174.243 73.0864C174.733 74.2511 175.555 75.2449 176.605 75.9435C177.656 76.6421 178.888 77.0145 180.148 77.0141C183.842 77.0141 186.548 74.058 186.548 70.4125M218.11 76.2729L222.001 74.2476C222.516 75.1677 223.271 75.9294 224.185 76.4504C225.1 76.9713 226.139 77.2318 227.19 77.2037C229.621 77.2037 230.884 75.954 230.884 74.532C230.884 72.9118 228.534 72.5498 225.979 72.0198C222.543 71.2873 218.965 70.154 218.965 65.9871C218.965 62.7854 222.001 59.8251 226.782 59.8681C230.549 59.8681 233.354 61.3677 234.943 63.7894L231.335 65.7716C230.837 65.031 230.158 64.4302 229.364 64.026C228.569 63.6218 227.685 63.4277 226.795 63.4619C224.484 63.4619 223.307 64.5952 223.307 65.8923C223.307 67.3488 225.171 67.7538 228.092 68.4045C231.417 69.137 235.179 70.2272 235.179 74.4372C235.179 77.2295 232.748 80.9957 226.992 80.9569C222.783 80.9569 219.819 79.2548 218.114 76.26M246.849 71.576L243.443 75.3034V80.5605H239.148V51H243.443V70.3608L252.562 60.3206H257.794L249.891 68.9819L258 80.5648H253.138L246.854 71.576H246.849ZM156.464 59.9155C151.353 59.9155 147.079 63.2336 147.079 68.7492V80.5777H151.46V69.2965C151.46 65.9785 153.363 63.9876 156.614 63.9876C159.866 63.9876 161.481 65.9698 161.481 69.2965V80.5777H165.836V68.7492C165.836 63.2422 161.541 59.9155 156.451 59.9155" fill="#03363D"/>
<path d="M52.9475 91.9967V54.4674L22 91.9967H52.9475Z" fill="#03363D"/>
<path d="M48.4154 51.9901C51.3173 49.0754 52.9475 45.1221 52.9475 41H22C22 45.1221 23.6303 49.0754 26.5322 51.9901C29.4341 54.9049 33.3699 56.5424 37.4738 56.5424C41.5777 56.5424 45.5135 54.9049 48.4154 51.9901Z" fill="#03363D"/>
<path d="M62.578 81.0099C59.6761 83.9246 58.0459 87.8779 58.0459 92H88.9934C88.9934 87.8779 87.3631 83.9246 84.4612 81.0099C81.5593 78.0951 77.6235 76.4576 73.5196 76.4576C69.4157 76.4576 65.4799 78.0951 62.578 81.0099Z" fill="#03363D"/>
<path d="M58.0459 41V78.5292L89 41H58.0459Z" fill="#03363D"/>
</svg>
