<svg width="1312" height="547" viewBox="0 0 1312 547" fill="none" xmlns="http://www.w3.org/2000/svg">
<rect width="1312" height="547" fill="url(#paint0_linear_96_63)"/>
<path fill-rule="evenodd" clip-rule="evenodd" d="M91 1H0V547H91V1ZM202 1H111V547H202V1ZM222 1H313V547H222V1ZM424 1H333V547H424V1ZM444 1H535V547H444V1ZM646 1H555V547H646V1ZM666 1H757V547H666V1ZM868 1H777V547H868V1ZM888 1H979V547H888V1ZM1090 1H999V547H1090V1ZM1110 1H1201V547H1110V1ZM1312 1H1221V547H1312V1Z" fill="url(#paint1_linear_96_63)" fill-opacity="0.02"/>
<defs>
<linearGradient id="paint0_linear_96_63" x1="178.122" y1="166.993" x2="874.961" y2="1009.4" gradientUnits="userSpaceOnUse">
<stop stop-color="#E9F1FF" stop-opacity="0.4"/>
<stop offset="1" stop-color="white"/>
</linearGradient>
<linearGradient id="paint1_linear_96_63" x1="25.5" y1="60.9999" x2="1312" y2="394" gradientUnits="userSpaceOnUse">
<stop stop-color="#1133CA"/>
<stop offset="1" stop-color="#F9FBFF"/>
</linearGradient>
</defs>
</svg>
