<svg width="280" height="140" viewBox="0 0 280 140" fill="none" xmlns="http://www.w3.org/2000/svg">
<path d="M106.373 73.5689C106.694 74.4088 107.138 75.127 107.707 75.7234C108.275 76.3198 108.948 76.7763 109.726 77.0928C110.504 77.4093 111.35 77.5675 112.264 77.5675C113.154 77.5675 113.987 77.4031 114.766 77.0744C115.544 76.7457 116.223 76.2832 116.804 75.6868C117.384 75.0904 117.835 74.3783 118.156 73.5506C118.477 72.7229 118.638 71.7979 118.638 70.7753V55H122.529V80.5618H118.675V78.1882C117.81 79.0889 116.791 79.7827 115.618 80.2697C114.444 80.7565 113.178 81 111.82 81C110.436 81 109.146 80.7626 107.947 80.2879C106.749 79.8132 105.712 79.1377 104.835 78.2612C103.958 77.3848 103.266 76.332 102.76 75.1026C102.253 73.8732 102 72.5038 102 70.9944V55H105.891V70.7753C105.891 71.7979 106.051 72.7289 106.373 73.5689Z" fill="#939393"/>
<path d="M129.235 55V64.3118C130.1 63.4597 131.101 62.7842 132.237 62.2851C133.373 61.786 134.609 61.5365 135.943 61.5365C137.326 61.5365 138.623 61.7921 139.833 62.3033C141.044 62.8145 142.094 63.5084 142.983 64.3848C143.872 65.2613 144.577 66.2959 145.095 67.4887C145.614 68.6817 145.873 69.9476 145.873 71.2866C145.873 72.6254 145.614 73.8853 145.095 75.066C144.577 76.2467 143.872 77.2753 142.983 78.1516C142.094 79.028 141.044 79.7219 139.833 80.2331C138.623 80.7443 137.326 80.9999 135.943 80.9999C134.609 80.9999 133.367 80.7504 132.218 80.2513C131.07 79.7523 130.063 79.0767 129.198 78.2246V80.5617H125.493V55H129.235ZM129.662 73.8062C129.995 74.5853 130.458 75.2669 131.051 75.8512C131.644 76.4355 132.336 76.898 133.126 77.2389C133.917 77.5797 134.769 77.7501 135.683 77.7501C136.573 77.7501 137.412 77.5797 138.203 77.2389C138.993 76.898 139.679 76.4355 140.26 75.8512C140.84 75.267 141.303 74.5853 141.649 73.8062C141.995 73.0272 142.168 72.1873 142.168 71.2866C142.168 70.3858 141.995 69.5398 141.649 68.7486C141.303 67.9574 140.84 67.2697 140.26 66.6854C139.679 66.1012 138.994 65.6447 138.203 65.3161C137.412 64.9874 136.572 64.823 135.683 64.823C134.794 64.823 133.954 64.9874 133.163 65.3161C132.373 65.6448 131.681 66.1012 131.088 66.6854C130.495 67.2697 130.026 67.9574 129.68 68.7486C129.334 69.5398 129.161 70.3858 129.161 71.2866C129.161 72.1873 129.328 73.0272 129.662 73.8062Z" fill="#939393"/>
<path d="M147.985 67.5253C148.479 66.3568 149.159 65.3283 150.023 64.4397C150.888 63.5511 151.913 62.8512 153.099 62.34C154.285 61.8288 155.569 61.5732 156.953 61.5732C158.311 61.5732 159.571 61.8166 160.732 62.3035C161.893 62.7904 162.894 63.466 163.734 64.3302C164.574 65.1944 165.228 66.2169 165.698 67.3976C166.167 68.5783 166.402 69.8625 166.402 71.2502V72.4553H151.024C151.147 73.2099 151.394 73.9098 151.765 74.5549C152.135 75.2 152.599 75.7599 153.154 76.2347C153.71 76.7094 154.34 77.0807 155.044 77.3484C155.748 77.6162 156.496 77.7502 157.286 77.7502C159.534 77.7502 161.35 76.8372 162.733 75.0113L165.438 76.9832C164.5 78.2248 163.339 79.1986 161.955 79.9046C160.572 80.6105 159.015 80.9636 157.286 80.9636C155.878 80.9636 154.563 80.72 153.34 80.2332C152.117 79.7464 151.055 79.0646 150.153 78.1882C149.251 77.3117 148.541 76.2832 148.022 75.1026C147.504 73.9219 147.244 72.6376 147.244 71.25C147.244 69.9355 147.491 68.6939 147.985 67.5253ZM153.191 66.0829C152.142 66.9471 151.444 68.0974 151.098 69.5337H162.622C162.301 68.0974 161.615 66.9471 160.565 66.0829C159.516 65.2187 158.287 64.7866 156.879 64.7866C155.47 64.7866 154.241 65.2187 153.191 66.0829Z" fill="#939393"/>
<path d="M173.405 66.5028C172.615 67.3548 172.219 68.5112 172.219 69.9719V80.5619H168.477V61.9382H172.182V64.2388C172.651 63.4841 173.263 62.8876 174.016 62.4495C174.77 62.0112 175.665 61.7921 176.703 61.7921H178V65.2247H176.444C175.208 65.2247 174.196 65.6507 173.405 66.5028Z" fill="#939393"/>
</svg>
